<svg width="201" height="114" viewBox="0 0 201 114" fill="none" xmlns="http://www.w3.org/2000/svg">
<path d="M18.9727 95.7012C18.9727 98.5957 18.3105 100.928 16.9863 102.697C15.6621 104.467 13.8691 105.352 11.6074 105.352C9.29883 105.352 7.48242 104.619 6.1582 103.154V112.312H2.90625V85.9805H5.87695L6.03516 88.0898C7.35938 86.4492 9.19922 85.6289 11.5547 85.6289C13.8398 85.6289 15.6445 86.4902 16.9688 88.2129C18.3047 89.9355 18.9727 92.332 18.9727 95.4023V95.7012ZM15.7207 95.332C15.7207 93.1875 15.2637 91.4941 14.3496 90.252C13.4355 89.0098 12.1816 88.3887 10.5879 88.3887C8.61914 88.3887 7.14258 89.2617 6.1582 91.0078V100.096C7.13086 101.83 8.61914 102.697 10.623 102.697C12.1816 102.697 13.418 102.082 14.332 100.852C15.2578 99.6094 15.7207 97.7695 15.7207 95.332ZM31.0137 105.352C28.4355 105.352 26.3379 104.508 24.7207 102.82C23.1035 101.121 22.2949 98.8535 22.2949 96.0176V95.4199C22.2949 93.5332 22.6523 91.8516 23.3672 90.375C24.0938 88.8867 25.1016 87.7266 26.3906 86.8945C27.6914 86.0508 29.0977 85.6289 30.6094 85.6289C33.082 85.6289 35.0039 86.4434 36.375 88.0723C37.7461 89.7012 38.4316 92.0332 38.4316 95.0684V96.4219H25.5469C25.5938 98.2969 26.1387 99.8145 27.1816 100.975C28.2363 102.123 29.5723 102.697 31.1895 102.697C32.3379 102.697 33.3105 102.463 34.1074 101.994C34.9043 101.525 35.6016 100.904 36.1992 100.131L38.1855 101.678C36.5918 104.127 34.2012 105.352 31.0137 105.352ZM30.6094 88.3008C29.2969 88.3008 28.1953 88.7812 27.3047 89.7422C26.4141 90.6914 25.8633 92.0273 25.6523 93.75H35.1797V93.5039C35.0859 91.8516 34.6406 90.5742 33.8438 89.6719C33.0469 88.7578 31.9688 88.3008 30.6094 88.3008ZM41.4199 95.332C41.4199 92.4141 42.1113 90.0703 43.4941 88.3008C44.877 86.5195 46.6875 85.6289 48.9258 85.6289C51.1523 85.6289 52.916 86.3906 54.2168 87.9141V78H57.4688V105H54.4805L54.3223 102.961C53.0215 104.555 51.2109 105.352 48.8906 105.352C46.6875 105.352 44.8887 104.449 43.4941 102.645C42.1113 100.84 41.4199 98.4844 41.4199 95.5781V95.332ZM44.6719 95.7012C44.6719 97.8574 45.1172 99.5449 46.0078 100.764C46.8984 101.982 48.1289 102.592 49.6992 102.592C51.7617 102.592 53.2676 101.666 54.2168 99.8145V91.0781C53.2441 89.2852 51.75 88.3887 49.7344 88.3887C48.1406 88.3887 46.8984 89.0039 46.0078 90.2344C45.1172 91.4648 44.6719 93.2871 44.6719 95.7012ZM74.2734 105C74.0859 104.625 73.9336 103.957 73.8164 102.996C72.3047 104.566 70.5 105.352 68.4023 105.352C66.5273 105.352 64.9863 104.824 63.7793 103.77C62.584 102.703 61.9863 101.355 61.9863 99.7266C61.9863 97.7461 62.7363 96.2109 64.2363 95.1211C65.748 94.0195 67.8691 93.4688 70.5996 93.4688H73.7637V91.9746C73.7637 90.8379 73.4238 89.9355 72.7441 89.2676C72.0645 88.5879 71.0625 88.248 69.7383 88.248C68.5781 88.248 67.6055 88.541 66.8203 89.127C66.0352 89.7129 65.6426 90.4219 65.6426 91.2539H62.373C62.373 90.3047 62.707 89.3906 63.375 88.5117C64.0547 87.6211 64.9688 86.918 66.1172 86.4023C67.2773 85.8867 68.5488 85.6289 69.9316 85.6289C72.123 85.6289 73.8398 86.1797 75.082 87.2812C76.3242 88.3711 76.9688 89.877 77.0156 91.7988V100.553C77.0156 102.299 77.2383 103.688 77.6836 104.719V105H74.2734ZM68.877 102.521C69.8965 102.521 70.8633 102.258 71.7773 101.73C72.6914 101.203 73.3535 100.518 73.7637 99.6738V95.7715H71.2148C67.2305 95.7715 65.2383 96.9375 65.2383 99.2695C65.2383 100.289 65.5781 101.086 66.2578 101.66C66.9375 102.234 67.8105 102.521 68.877 102.521ZM85.6465 105H82.3945V78H85.6465V105ZM102.609 105C102.422 104.625 102.27 103.957 102.152 102.996C100.641 104.566 98.8359 105.352 96.7383 105.352C94.8633 105.352 93.3223 104.824 92.1152 103.77C90.9199 102.703 90.3223 101.355 90.3223 99.7266C90.3223 97.7461 91.0723 96.2109 92.5723 95.1211C94.084 94.0195 96.2051 93.4688 98.9355 93.4688H102.1V91.9746C102.1 90.8379 101.76 89.9355 101.08 89.2676C100.4 88.5879 99.3984 88.248 98.0742 88.248C96.9141 88.248 95.9414 88.541 95.1562 89.127C94.3711 89.7129 93.9785 90.4219 93.9785 91.2539H90.709C90.709 90.3047 91.043 89.3906 91.7109 88.5117C92.3906 87.6211 93.3047 86.918 94.4531 86.4023C95.6133 85.8867 96.8848 85.6289 98.2676 85.6289C100.459 85.6289 102.176 86.1797 103.418 87.2812C104.66 88.3711 105.305 89.877 105.352 91.7988V100.553C105.352 102.299 105.574 103.688 106.02 104.719V105H102.609ZM97.2129 102.521C98.2324 102.521 99.1992 102.258 100.113 101.73C101.027 101.203 101.689 100.518 102.1 99.6738V95.7715H99.5508C95.5664 95.7715 93.5742 96.9375 93.5742 99.2695C93.5742 100.289 93.9141 101.086 94.5938 101.66C95.2734 102.234 96.1465 102.521 97.2129 102.521ZM120.627 90.7441C119.936 90.6504 119.326 90.6035 118.799 90.6035C116.877 90.6035 115.617 91.2539 115.02 92.5547V105H109.939V85.9805H114.738L114.879 88.248C115.898 86.502 117.311 85.6289 119.115 85.6289C119.678 85.6289 120.205 85.7051 120.697 85.8574L120.627 90.7441ZM131.49 105.352C128.701 105.352 126.428 104.496 124.67 102.785C122.924 101.074 122.051 98.7949 122.051 95.9473V95.4551C122.051 93.5449 122.42 91.8398 123.158 90.3398C123.896 88.8281 124.939 87.668 126.287 86.8594C127.646 86.0391 129.193 85.6289 130.928 85.6289C133.529 85.6289 135.574 86.4492 137.062 88.0898C138.562 89.7305 139.312 92.0566 139.312 95.0684V97.1426H127.201C127.365 98.3848 127.857 99.3809 128.678 100.131C129.51 100.881 130.559 101.256 131.824 101.256C133.781 101.256 135.311 100.547 136.412 99.1289L138.908 101.924C138.146 103.002 137.115 103.846 135.814 104.455C134.514 105.053 133.072 105.352 131.49 105.352ZM130.91 89.7422C129.902 89.7422 129.082 90.082 128.449 90.7617C127.828 91.4414 127.43 92.4141 127.254 93.6797H134.32V93.2754C134.297 92.1504 133.992 91.2832 133.406 90.6738C132.82 90.0527 131.988 89.7422 130.91 89.7422ZM150.123 101.256C151.061 101.256 151.822 100.998 152.408 100.482C152.994 99.9668 153.299 99.2812 153.322 98.4258H158.086C158.074 99.7148 157.723 100.898 157.031 101.977C156.34 103.043 155.391 103.875 154.184 104.473C152.988 105.059 151.664 105.352 150.211 105.352C147.492 105.352 145.348 104.49 143.777 102.768C142.207 101.033 141.422 98.6426 141.422 95.5957V95.2617C141.422 92.332 142.201 89.9941 143.76 88.248C145.318 86.502 147.457 85.6289 150.176 85.6289C152.555 85.6289 154.459 86.3086 155.889 87.668C157.33 89.0156 158.062 90.8145 158.086 93.0645H153.322C153.299 92.0801 152.994 91.2832 152.408 90.6738C151.822 90.0527 151.049 89.7422 150.088 89.7422C148.904 89.7422 148.008 90.1758 147.398 91.043C146.801 91.8984 146.502 93.293 146.502 95.2266V95.7539C146.502 97.7109 146.801 99.1172 147.398 99.9727C147.996 100.828 148.904 101.256 150.123 101.256ZM166.348 105H161.25V85.9805H166.348V105ZM160.951 81.0586C160.951 80.2969 161.203 79.6699 161.707 79.1777C162.223 78.6855 162.92 78.4395 163.799 78.4395C164.666 78.4395 165.357 78.6855 165.873 79.1777C166.389 79.6699 166.646 80.2969 166.646 81.0586C166.646 81.832 166.383 82.4648 165.855 82.957C165.34 83.4492 164.654 83.6953 163.799 83.6953C162.943 83.6953 162.252 83.4492 161.725 82.957C161.209 82.4648 160.951 81.832 160.951 81.0586ZM171.938 105V89.707H169.107V85.9805H171.938V84.3633C171.938 82.2305 172.547 80.5781 173.766 79.4062C174.996 78.2227 176.713 77.6309 178.916 77.6309C179.619 77.6309 180.48 77.748 181.5 77.9824L181.447 81.9199C181.025 81.8145 180.51 81.7617 179.9 81.7617C177.99 81.7617 177.035 82.6582 177.035 84.4512V85.9805H180.814V89.707H177.035V105H171.938ZM191.783 105.352C188.994 105.352 186.721 104.496 184.963 102.785C183.217 101.074 182.344 98.7949 182.344 95.9473V95.4551C182.344 93.5449 182.713 91.8398 183.451 90.3398C184.189 88.8281 185.232 87.668 186.58 86.8594C187.939 86.0391 189.486 85.6289 191.221 85.6289C193.822 85.6289 195.867 86.4492 197.355 88.0898C198.855 89.7305 199.605 92.0566 199.605 95.0684V97.1426H187.494C187.658 98.3848 188.15 99.3809 188.971 100.131C189.803 100.881 190.852 101.256 192.117 101.256C194.074 101.256 195.604 100.547 196.705 99.1289L199.201 101.924C198.439 103.002 197.408 103.846 196.107 104.455C194.807 105.053 193.365 105.352 191.783 105.352ZM191.203 89.7422C190.195 89.7422 189.375 90.082 188.742 90.7617C188.121 91.4414 187.723 92.4141 187.547 93.6797H194.613V93.2754C194.59 92.1504 194.285 91.2832 193.699 90.6738C193.113 90.0527 192.281 89.7422 191.203 89.7422Z" fill="#808080"/>
<path d="M110.176 7.251H104.888C103.39 7.251 102.047 6.33045 101.506 4.93399C100.587 2.55819 102.339 0 104.887 0H116.434C118.23 0 119.427 1.67331 119.801 2.50996L134.558 41.8761C135.248 43.7183 134.354 45.7762 132.537 46.5289C130.635 47.3166 128.458 46.3758 127.728 44.4506L114.851 10.4788C114.115 8.53595 112.253 7.251 110.176 7.251Z" fill="#0CC8B3"/>
<path d="M78.551 19.8008H69.811C68.3136 19.8008 66.9703 18.8803 66.4298 17.4838C65.5104 15.108 67.2626 12.5498 69.8101 12.5498H81.3571C85.0051 12.5498 84.7245 15.8964 84.7245 16.7331C84.7245 18.9641 82.4796 19.7078 81.3571 19.8008H78.551Z" fill="#0CC8B3"/>
<path fill-rule="evenodd" clip-rule="evenodd" d="M119.656 33.2522C118.716 30.7699 115.62 29.9387 113.963 32.0122C110.767 36.0104 108.857 41.0704 108.857 46.5737C108.857 59.5117 119.41 70 132.429 70C145.447 70 156 59.5117 156 46.5737C156 33.6357 145.447 23.1474 132.429 23.1474C132.044 23.1474 131.786 23.5329 131.921 23.8925L133.567 28.2825C134.081 29.6549 135.33 30.5876 136.744 30.9731C143.638 32.8525 148.704 39.1252 148.704 46.5737C148.704 55.5071 141.417 62.749 132.429 62.749C123.44 62.749 116.153 55.5071 116.153 46.5737C116.153 43.1882 117.2 40.0456 118.989 37.448C119.839 36.2135 120.188 34.6539 119.656 33.2522Z" fill="#0CC8B3"/>
<path d="M109.819 19.1907C92.2497 24.4548 80.0369 37.2087 74.5125 45.2864C73.4334 46.8641 71.303 47.4133 69.675 46.4117C68.0751 45.4273 67.5885 43.3147 68.6574 41.77C81.9989 22.49 99.1747 14.3104 108.516 12.0019C110.177 11.5913 111.812 12.5721 112.416 14.1735C113.203 16.2593 111.954 18.5509 109.819 19.1907Z" fill="#0CC8B3"/>
<path fill-rule="evenodd" clip-rule="evenodd" d="M86.1489 37.2441C84.9163 38.4107 84.6499 40.2407 85.1462 41.8636C85.6019 43.354 85.8469 44.9354 85.8469 46.5737C85.8469 55.5071 78.5601 62.749 69.5714 62.749C60.5827 62.749 53.2959 55.5071 53.2959 46.5737C53.2959 37.6403 60.5827 30.3984 69.5714 30.3984C69.8081 30.3984 70.0437 30.4034 70.2779 30.4134C71.5681 30.4681 72.9045 30.0093 73.8092 29.0879C75.821 27.039 75.1089 23.6191 72.2555 23.2976C71.3746 23.1984 70.479 23.1474 69.5714 23.1474C56.5533 23.1474 46 33.6357 46 46.5737C46 59.5117 56.5533 70 69.5714 70C82.5896 70 93.1429 59.5117 93.1429 46.5737C93.1429 43.6178 92.592 40.7898 91.5868 38.1855C90.7237 35.9494 87.8897 35.5964 86.1489 37.2441Z" fill="#0CC8B3"/>
</svg>
